<?xml version="1.0" encoding="UTF-8" standalone="no"?>
<!DOCTYPE svg PUBLIC "-//W3C//DTD SVG 1.1//EN" "http://www.w3.org/Graphics/SVG/1.1/DTD/svg11.dtd">
<svg width="100%" height="100%" viewBox="0 0 250 250" version="1.1" xmlns="http://www.w3.org/2000/svg" xmlns:xlink="http://www.w3.org/1999/xlink" xml:space="preserve" xmlns:serif="http://www.serif.com/" style="fill-rule:evenodd;clip-rule:evenodd;stroke-linejoin:round;stroke-miterlimit:2;">
    <g transform="matrix(1,0,0,1,-32,-32)">
        <g transform="matrix(0.504269,0,0,0.514534,-18.5037,10.574)">
            <g transform="matrix(0.360078,0,0,0.360078,225.062,527.518)">
                <path d="M0,-1349.36L-161.689,-905.455L-138.169,-881.938L-346.896,-405.692L17.64,-209.884L59.615,-82.691L202.845,0L85.255,-423.33L47.036,-314.557L-141.109,-417.45L-85.254,-490.944L-174.743,-550.986L-111.713,-699.672L-78.647,-782.864L29.398,-899.576L-35.279,-973.071L35.278,-1175.92L152.87,-1055.38L159.839,-981.128L196.588,-973.289L220.484,-940.735L241.064,-893.696L340.89,-438.506L444.229,-893.696L460.324,-940.735L490.324,-973.289L527.821,-981.128L528.311,-1055.38L649.145,-1180.32L716.467,-973.071L654.239,-899.576L756.248,-782.192L852.542,-555.621L767.288,-493.885L827.696,-417.45L649.338,-314.557L601.184,-423.33L485.065,0L639.463,-90.242L670.272,-209.884L1029.94,-402.851L826.082,-887.816L846.662,-914.275L682.659,-1349.36L439.624,-1087.95L254.407,-1088.27L0,-1349.36Z" style="fill-rule:nonzero;"/>
            </g>
            <g transform="matrix(0.360078,0,0,0.360078,235.508,373.254)">
                <path d="M0,-195.996L43.119,-86.237L146.997,-51.938L198.937,0L171.497,-135.237L0,-195.996Z" style="fill-rule:nonzero;"/>
            </g>
            <g transform="matrix(0.360078,0,0,0.360078,459.228,373.254)">
                <path d="M0,-195.996C-3.92,-195.016 -170.517,-137.197 -170.517,-137.197L-201.876,0L-142.098,-48.018L-37.239,-88.197L0,-195.996Z" style="fill-rule:nonzero;"/>
            </g>
            <g transform="matrix(0.360078,0,0,0.360078,319.844,488.678)">
                <path d="M0,58.275L77.664,107.865L157.157,50.558L181.786,-49.59L126.417,14.599L32.335,15.193L-26.459,-49.59L0,58.275Z" style="fill-rule:nonzero;"/>
            </g>
        </g>
    </g>
</svg>
